<?xml version="1.0" encoding="UTF-8"?>
<svg xmlns="http://www.w3.org/2000/svg" xmlns:xlink="http://www.w3.org/1999/xlink" width="319.38pt" height="365pt" viewBox="0 0 319.38 365" version="1.1">
<defs>
<clipPath id="clip1">
  <path d="M 23 0 L 319.378906 0 L 319.378906 281 L 23 281 Z M 23 0 "/>
</clipPath>
</defs>
<g id="surface1">
<path style=" stroke:none;fill-rule:nonzero;fill:rgb(100%,79.998779%,40.39917%);fill-opacity:1;" d="M 200.183594 60.453125 L 126.691406 238.355469 L 171.257813 238.355469 L 244.746094 60.453125 L 200.183594 60.453125 "/>
<path style=" stroke:none;fill-rule:nonzero;fill:rgb(92.89856%,12.199402%,14.099121%);fill-opacity:1;" d="M 155.933594 60.453125 L 82.394531 238.472656 L 126.960938 238.472656 L 200.496094 60.453125 L 155.933594 60.453125 "/>
<path style=" stroke:none;fill-rule:nonzero;fill:rgb(0.799561%,0.799561%,0.799561%);fill-opacity:1;" d="M 65.785156 302.042969 L 56.164063 302.042969 C 48.355469 302.042969 46.488281 302.113281 46.25 302.402344 C 45.859375 302.882813 36.964844 329.183594 36.964844 329.867188 C 36.964844 330.167969 37.039063 330.492188 37.132813 330.585938 C 37.34375 330.800781 56.828125 330.820313 57.375 330.609375 C 57.84375 330.425781 59.414063 325.8125 59.292969 324.960938 C 59.210938 324.375 59.152344 324.363281 55.261719 324.292969 C 51.644531 324.226563 51.332031 324.183594 51.496094 323.769531 C 51.597656 323.523438 51.953125 322.511719 52.289063 321.527344 C 52.625 320.539063 53.03125 319.570313 53.195313 319.371094 C 53.414063 319.101563 54.300781 319.015625 56.765625 319.015625 C 59.234375 319.015625 60.121094 318.925781 60.339844 318.65625 C 60.773438 318.125 61.910156 314.59375 61.910156 313.773438 C 61.910156 313.367188 61.738281 312.996094 61.503906 312.90625 C 61.28125 312.820313 59.78125 312.75 58.171875 312.75 L 55.242188 312.75 L 56.640625 308.703125 L 60.425781 308.628906 C 64.792969 308.546875 64.335938 308.84375 65.503906 305.332031 C 65.996094 303.855469 66.148438 303.035156 66 302.628906 L 65.785156 302.042969 "/>
<path style=" stroke:none;fill-rule:nonzero;fill:rgb(0.799561%,0.799561%,0.799561%);fill-opacity:1;" d="M 28.722656 336.566406 C 23.726563 336.511719 22.054688 336.574219 21.734375 336.824219 C 21.5 337.007813 19.605469 340.558594 17.519531 344.71875 C 15.433594 348.878906 13.816406 351.933594 13.925781 351.507813 C 14.285156 350.078125 15.300781 344.5 15.867188 340.863281 C 16.304688 338.035156 16.359375 337.175781 16.117188 336.882813 C 15.695313 336.367188 2.964844 336.316406 2.558594 336.832031 C 2.25 337.222656 -0.207031 363.976563 0.015625 364.558594 C 0.148438 364.917969 1.285156 364.957031 9.96875 364.898438 L 19.765625 364.828125 L 27.601563 351.253906 C 32.238281 343.21875 35.40625 337.464844 35.363281 337.15625 C 35.292969 336.652344 35.070313 336.632813 28.722656 336.566406 "/>
<path style=" stroke:none;fill-rule:nonzero;fill:rgb(0.799561%,0.799561%,0.799561%);fill-opacity:1;" d="M 81.519531 302.570313 C 81.316406 302.242188 80.308594 302.164063 75.488281 302.105469 C 71.054688 302.050781 69.636719 302.113281 69.429688 302.367188 C 69.09375 302.78125 62.609375 322.046875 62.171875 323.929688 C 61.765625 325.691406 61.960938 326.910156 62.835938 328.074219 C 63.703125 329.230469 66.164063 330.425781 68.664063 330.910156 C 69.941406 331.15625 71.859375 331.238281 74.773438 331.171875 C 78.441406 331.089844 79.328125 330.980469 81.328125 330.378906 C 85.277344 329.191406 87.90625 327.3125 89.046875 324.859375 C 89.71875 323.425781 96.3125 304.222656 96.480469 303.21875 C 96.667969 302.105469 96.351563 302.042969 90.332031 302.042969 C 85.867188 302.042969 84.546875 302.121094 84.324219 302.394531 C 84.164063 302.585938 82.414063 307.550781 80.429688 313.421875 C 78.441406 319.296875 76.605469 324.398438 76.347656 324.757813 C 75.738281 325.605469 74.515625 325.800781 74.515625 325.046875 C 74.515625 324.761719 76.144531 319.671875 78.140625 313.742188 C 80.730469 306.027344 81.695313 302.851563 81.519531 302.570313 "/>
<path style=" stroke:none;fill-rule:nonzero;fill:rgb(0.799561%,0.799561%,0.799561%);fill-opacity:1;" d="M 95.863281 329.976563 C 95.863281 330.238281 96.007813 330.515625 96.183594 330.589844 C 96.75 330.820313 107.550781 330.761719 107.921875 330.523438 C 108.117188 330.398438 109.921875 325.4375 111.929688 319.5 L 115.585938 308.703125 L 119.035156 308.570313 L 122.484375 308.441406 L 123.308594 306.09375 C 123.761719 304.796875 124.109375 303.390625 124.078125 302.960938 L 124.027344 302.175781 L 111.679688 302.101563 C 104.890625 302.0625 99.085938 302.09375 98.777344 302.167969 C 98.335938 302.277344 98.050781 302.820313 97.410156 304.777344 C 96.960938 306.140625 96.632813 307.519531 96.679688 307.847656 C 96.761719 308.421875 96.859375 308.445313 99.785156 308.515625 C 101.445313 308.554688 102.808594 308.671875 102.808594 308.777344 C 102.808594 308.878906 101.242188 313.582031 99.335938 319.226563 C 97.425781 324.871094 95.863281 329.710938 95.863281 329.976563 "/>
<path style=" stroke:none;fill-rule:nonzero;fill:rgb(0.799561%,0.799561%,0.799561%);fill-opacity:1;" d="M 25.417969 305.21875 C 25.417969 304.945313 25.976563 303.898438 25.753906 303.8125 C 25.527344 303.726563 23.054688 303.226563 20.253906 303.226563 C 16.296875 303.226563 15.097656 303.410156 14.875 303.683594 C 14.40625 304.257813 3.523438 331.78125 3.523438 332.453125 C 3.523438 332.789063 3.660156 333.113281 3.824219 333.167969 C 4.234375 333.308594 26.421875 333.117188 27.058594 332.96875 C 27.34375 332.902344 28.640625 331.527344 29.941406 329.910156 C 36.347656 321.957031 39.902344 315.679688 41.195313 310.015625 C 41.648438 308.039063 41.710938 303.792969 41.3125 302.042969 C 40.875 300.113281 39.550781 297.695313 37.984375 295.96875 L 36.511719 294.34375 L 21.46875 294.273438 C 7.378906 294.207031 6.394531 294.230469 5.902344 294.664063 C 5.246094 295.242188 3.472656 300.0625 3.578125 300.976563 L 3.652344 301.652344 L 16.515625 301.71875 C 31.15625 301.792969 30.019531 301.589844 30.019531 304.15625 C 30.019531 308.664063 26.417969 319.414063 23.386719 323.972656 L 22.429688 325.410156 L 19.90625 325.484375 C 17.449219 325.558594 17.394531 325.546875 17.664063 325.03125 C 18.300781 323.824219 25.417969 305.675781 25.417969 305.21875 "/>
<path style=" stroke:none;fill-rule:nonzero;fill:rgb(0.799561%,0.799561%,0.799561%);fill-opacity:1;" d="M 198.488281 302.4375 C 198.222656 302.109375 197.234375 302.042969 192.445313 302.042969 C 188.179688 302.042969 186.652344 302.128906 186.453125 302.371094 C 186.101563 302.804688 177.140625 329.371094 177.140625 329.984375 C 177.140625 330.242188 177.285156 330.515625 177.460938 330.589844 C 177.636719 330.660156 180.292969 330.730469 183.359375 330.742188 C 187.855469 330.757813 189.007813 330.691406 189.300781 330.390625 C 189.503906 330.1875 190.445313 327.691406 191.398438 324.84375 C 192.351563 321.996094 193.253906 319.519531 193.398438 319.339844 C 193.660156 319.019531 195.183594 318.878906 195.449219 319.152344 C 195.527344 319.226563 194.777344 321.691406 193.789063 324.632813 C 192.308594 329.027344 192.046875 330.042969 192.3125 330.367188 C 192.757813 330.910156 203.921875 330.957031 204.363281 330.417969 C 204.828125 329.851563 213.691406 303.292969 213.609375 302.710938 C 213.535156 302.191406 213.367188 302.171875 207.746094 302.113281 C 204.566406 302.078125 201.804688 302.148438 201.613281 302.273438 C 201.425781 302.398438 200.554688 304.597656 199.6875 307.167969 L 198.101563 311.835938 L 197.007813 311.914063 C 196.40625 311.960938 195.914063 311.902344 195.914063 311.785156 C 195.910156 311.667969 196.5625 309.605469 197.363281 307.203125 C 198.554688 303.613281 198.753906 302.761719 198.488281 302.4375 "/>
<path style=" stroke:none;fill-rule:nonzero;fill:rgb(0.799561%,0.799561%,0.799561%);fill-opacity:1;" d="M 228.003906 308.703125 L 231.683594 308.628906 C 233.707031 308.589844 235.5 308.441406 235.664063 308.300781 C 235.832031 308.160156 236.355469 306.886719 236.828125 305.464844 C 237.558594 303.277344 237.636719 302.816406 237.347656 302.464844 C 237.046875 302.09375 235.898438 302.042969 227.425781 302.042969 C 220.0625 302.042969 217.78125 302.121094 217.589844 302.371094 C 217.316406 302.726563 208.261719 329.410156 208.261719 329.859375 C 208.261719 330.011719 208.402344 330.277344 208.570313 330.449219 C 209.023438 330.910156 228.671875 330.898438 229.03125 330.433594 C 229.507813 329.824219 230.910156 325.101563 230.746094 324.667969 C 230.605469 324.289063 230.085938 324.234375 226.753906 324.234375 C 224.648438 324.234375 222.921875 324.148438 222.921875 324.039063 C 222.921875 323.644531 224.285156 319.65625 224.527344 319.347656 C 224.695313 319.132813 225.902344 319.003906 228.285156 318.957031 L 231.796875 318.882813 L 232.695313 316.1875 C 233.578125 313.550781 233.585938 313.484375 233.097656 313.121094 C 232.734375 312.847656 231.792969 312.75 229.597656 312.75 L 226.597656 312.75 L 228.003906 308.703125 "/>
<path style=" stroke:none;fill-rule:nonzero;fill:rgb(0.799561%,0.799561%,0.799561%);fill-opacity:1;" d="M 175.457031 302.132813 C 174.179688 301.734375 173.09375 301.65625 168.910156 301.675781 C 163.242188 301.703125 161.3125 302.066406 157.960938 303.734375 C 155.445313 304.984375 154.007813 306.34375 153.015625 308.40625 C 152.21875 310.070313 149.289063 318.449219 148.304688 321.886719 C 147.730469 323.886719 147.671875 326.585938 148.179688 327.574219 C 149.011719 329.195313 150.996094 330.316406 154.101563 330.917969 C 156.933594 331.464844 163.832031 331.25 166.542969 330.527344 C 172.339844 328.988281 174.679688 326.972656 176.628906 321.835938 C 177.867188 318.582031 178.175781 318.753906 171.097656 318.753906 L 165.089844 318.753906 L 164.589844 320.121094 C 164.3125 320.878906 164 321.789063 163.894531 322.148438 C 163.523438 323.390625 162.5 325.214844 162.085938 325.378906 C 161.339844 325.667969 160.222656 325.550781 160.078125 325.167969 C 159.941406 324.804688 164.195313 311.777344 165.316406 309.128906 C 165.636719 308.378906 166.101563 307.65625 166.355469 307.515625 C 166.964844 307.1875 168.320313 307.195313 168.527344 307.535156 C 168.617188 307.679688 168.214844 309.246094 167.636719 311.015625 C 167.054688 312.785156 166.652344 314.425781 166.742188 314.664063 C 166.890625 315.050781 167.546875 315.097656 172.789063 315.097656 C 178.605469 315.097656 178.675781 315.09375 179.046875 314.511719 C 179.742188 313.425781 180.789063 309.28125 180.820313 307.492188 C 180.84375 305.976563 180.757813 305.640625 180.136719 304.8125 C 179.34375 303.761719 177.769531 302.855469 175.457031 302.132813 "/>
<path style=" stroke:none;fill-rule:nonzero;fill:rgb(0.799561%,0.799561%,0.799561%);fill-opacity:1;" d="M 144.972656 302.132813 C 142.441406 301.40625 133.824219 301.476563 131.0625 302.246094 C 125.628906 303.757813 122.734375 306.890625 122.417969 311.609375 C 122.195313 314.914063 123.023438 315.785156 129.300781 318.832031 C 132.890625 320.574219 133.675781 321.160156 133.664063 322.101563 C 133.65625 323.085938 132.785156 324.921875 132.167969 325.257813 C 131.414063 325.667969 130.082031 325.609375 129.910156 325.15625 C 129.832031 324.945313 130.078125 323.828125 130.457031 322.667969 C 131.011719 320.984375 131.085938 320.484375 130.835938 320.179688 C 130.414063 319.664063 120.375 319.613281 119.722656 320.121094 C 119.101563 320.613281 118.238281 323.816406 118.242188 325.632813 C 118.242188 326.753906 118.390625 327.484375 118.734375 328.058594 C 119.382813 329.136719 121.972656 330.429688 124.445313 330.90625 C 125.769531 331.160156 127.621094 331.238281 130.585938 331.164063 C 140.402344 330.921875 144.644531 328.269531 146.011719 321.527344 C 146.835938 317.484375 145.410156 315.808594 138.511719 312.699219 C 135.222656 311.21875 134.699219 310.839844 134.699219 309.953125 C 134.699219 309.121094 135.359375 307.867188 135.972656 307.535156 C 136.503906 307.246094 137.609375 307.171875 137.84375 307.410156 C 137.921875 307.488281 137.804688 308.234375 137.585938 309.0625 C 136.929688 311.542969 136.703125 311.441406 142.917969 311.441406 C 149.183594 311.441406 148.769531 311.632813 149.496094 308.449219 C 150.332031 304.792969 149.320313 303.378906 144.972656 302.132813 "/>
<path style=" stroke:none;fill-rule:nonzero;fill:rgb(0.799561%,0.799561%,0.799561%);fill-opacity:1;" d="M 218.230469 337.289063 L 218.164063 336.636719 L 212.863281 336.566406 C 208.796875 336.511719 207.496094 336.570313 207.289063 336.828125 C 206.960938 337.230469 203.640625 346.601563 203.617188 347.1875 C 203.582031 348.054688 203.160156 346.449219 202.21875 341.855469 C 201.691406 339.273438 201.140625 337.011719 200.996094 336.832031 C 200.703125 336.457031 190.628906 336.355469 190.058594 336.722656 C 189.625 337.003906 180.15625 364.132813 180.332031 364.597656 C 180.519531 365.097656 191.144531 365.136719 191.464844 364.636719 C 191.578125 364.460938 192.507813 361.960938 193.527344 359.089844 C 194.675781 355.84375 195.382813 354.160156 195.394531 354.648438 C 195.417969 355.921875 196.90625 364.5 197.144531 364.746094 C 197.265625 364.867188 199.960938 364.9375 203.128906 364.898438 L 208.894531 364.828125 L 213.59375 351.386719 C 216.179688 343.988281 218.265625 337.648438 218.230469 337.289063 "/>
<path style=" stroke:none;fill-rule:nonzero;fill:rgb(0.799561%,0.799561%,0.799561%);fill-opacity:1;" d="M 248.164063 358.621094 C 247.875 359.199219 247.449219 359.746094 247.21875 359.835938 C 246.691406 360.042969 245.691406 360.046875 245.492188 359.847656 C 245.410156 359.761719 245.507813 359.125 245.710938 358.425781 C 246.488281 355.769531 250.96875 343.1875 251.34375 342.605469 C 252.058594 341.492188 253.984375 341.394531 253.832031 342.476563 C 253.707031 343.363281 248.789063 357.382813 248.164063 358.621094 Z M 248.386719 364.636719 C 247.890625 364.636719 247.6875 364.585938 247.9375 364.519531 C 248.183594 364.453125 248.589844 364.453125 248.835938 364.519531 C 249.085938 364.585938 248.882813 364.636719 248.386719 364.636719 Z M 241.054688 364.648438 C 240.632813 364.652344 240.425781 364.597656 240.601563 364.527344 C 240.773438 364.457031 241.121094 364.449219 241.371094 364.515625 C 241.621094 364.585938 241.480469 364.640625 241.054688 364.648438 Z M 266.949219 340.992188 C 266.324219 338.871094 264.53125 337.496094 261.179688 336.570313 C 258.898438 335.9375 250.617188 335.929688 247.855469 336.554688 C 243.9375 337.441406 240.515625 339.15625 238.988281 341.003906 C 237.902344 342.3125 236.96875 344.433594 234.941406 350.214844 C 231.886719 358.929688 231.664063 360.421875 233.136719 362.3125 C 233.546875 362.835938 234.609375 363.640625 235.511719 364.109375 L 237.148438 364.960938 L 244.890625 364.957031 L 252.628906 364.953125 L 254.703125 364.21875 C 256.992188 363.410156 259.324219 361.964844 260.386719 360.695313 C 261.382813 359.503906 262.507813 356.890625 264.464844 351.253906 C 266.894531 344.242188 267.351563 342.351563 266.949219 340.992188 "/>
<path style=" stroke:none;fill-rule:nonzero;fill:rgb(0.799561%,0.799561%,0.799561%);fill-opacity:1;" d="M 301.222656 336.664063 C 300.996094 336.574219 298.570313 336.503906 295.824219 336.503906 C 290.929688 336.503906 290.828125 336.515625 290.457031 337.09375 C 290.246094 337.417969 289.445313 339.503906 288.675781 341.730469 C 287.902344 343.953125 287.132813 346.125 286.960938 346.554688 C 286.671875 347.28125 286.570313 346.96875 285.554688 342.152344 C 284.910156 339.101563 284.3125 336.875 284.105469 336.738281 C 283.519531 336.363281 273.445313 336.445313 273.148438 336.832031 C 272.636719 337.492188 263.5 364.164063 263.648438 364.554688 C 263.78125 364.902344 264.554688 364.960938 269.195313 364.960938 C 273.121094 364.960938 274.644531 364.875 274.78125 364.644531 C 274.886719 364.472656 275.746094 362.101563 276.695313 359.375 C 277.800781 356.1875 278.464844 354.601563 278.558594 354.925781 C 278.636719 355.203125 279.015625 357.429688 279.402344 359.867188 C 279.785156 362.308594 280.214844 364.453125 280.351563 364.632813 C 280.722656 365.117188 291.675781 365.101563 292.074219 364.613281 C 292.4375 364.171875 301.628906 337.855469 301.628906 337.261719 C 301.628906 337.019531 301.445313 336.75 301.222656 336.664063 "/>
<path style=" stroke:none;fill-rule:nonzero;fill:rgb(0.799561%,0.799561%,0.799561%);fill-opacity:1;" d="M 235.589844 337.035156 C 235.378906 336.695313 234.390625 336.625 229.175781 336.566406 C 223.546875 336.5 222.976563 336.535156 222.625 336.957031 C 222.277344 337.371094 213.191406 363.101563 213.027344 364.136719 C 212.988281 364.375 213.007813 364.65625 213.070313 364.765625 C 213.128906 364.871094 216.050781 364.960938 219.5625 364.960938 C 224.359375 364.960938 226.011719 364.878906 226.207031 364.632813 C 226.351563 364.453125 228.578125 358.261719 231.152344 350.871094 C 234.582031 341.042969 235.773438 337.332031 235.589844 337.035156 "/>
<g clip-path="url(#clip1)" clip-rule="nonzero">
<path style=" stroke:none;fill-rule:nonzero;fill:rgb(0.799561%,0.799561%,0.799561%);fill-opacity:1;" d="M 318.964844 94.769531 C 318.964844 92.6875 319.003906 91.835938 319.050781 92.875 C 319.101563 93.914063 319.101563 95.621094 319.050781 96.660156 C 319.003906 97.703125 318.964844 96.851563 318.964844 94.769531 Z M 319.050781 82.707031 C 319.101563 83.898438 319.101563 85.777344 319.050781 86.882813 C 319.003906 87.988281 318.964844 87.015625 318.964844 84.71875 C 318.964844 82.421875 319.003906 81.515625 319.050781 82.707031 Z M 109.238281 0.398438 C 81.15625 0.398438 69.667969 0.367188 83.710938 0.332031 C 97.75 0.296875 120.726563 0.296875 134.765625 0.332031 C 148.804688 0.367188 137.316406 0.398438 109.238281 0.398438 Z M 318.875 69.316406 C 317.113281 55.5625 313.878906 44.34375 308.664063 33.917969 C 303.441406 23.46875 297.199219 15.839844 289.023438 9.921875 C 282.820313 5.429688 276.296875 2.65625 267.386719 0.71875 L 264.71875 0.140625 L 53.101563 0 L 53.261719 0.816406 C 53.480469 1.925781 52.039063 5.347656 47.109375 15.40625 C 40.777344 28.339844 35.929688 37.488281 34.386719 39.429688 C 34.097656 39.792969 33.796875 40.503906 33.714844 41.011719 C 33.59375 41.761719 33.695313 42.089844 34.257813 42.769531 C 36.089844 43.53125 36.566406 42.929688 38.363281 43.109375 C 40.410156 42.949219 42.6875 43.589844 135.398438 43.597656 C 228.78125 43.601563 231.460938 43.613281 233.925781 44.101563 C 236.863281 44.679688 240.507813 46.003906 242.644531 47.277344 C 244.621094 48.453125 248.796875 52.710938 249.992188 54.773438 C 252.972656 59.894531 254.339844 65.351563 254.851563 74.144531 C 255.257813 81.167969 255.050781 85.292969 254.089844 89.15625 C 251.023438 101.480469 243.289063 121.6875 220.914063 175.824219 C 211.996094 197.410156 210.414063 200.882813 206.566406 207.320313 C 198.277344 221.199219 188.960938 230.628906 178.625 235.59375 C 173.113281 238.246094 106.257813 238.050781 83.214844 238.34375 C 84.773438 238.894531 149.289063 79.085938 156.335938 60.453125 L 113.386719 60.453125 C 112.695313 61.863281 92.460938 110.601563 67.976563 169.835938 C 34.722656 250.277344 22.925781 279.070313 23.066406 279.460938 C 23.25 279.957031 23.570313 279.996094 28.632813 280.183594 C 31.585938 280.292969 38.691406 280.484375 44.421875 280.613281 C 58.300781 280.921875 126.660156 280.765625 136.117188 280.402344 C 167.410156 279.195313 179.050781 277.894531 193.601563 273.976563 C 226.871094 265.015625 256.085938 244.367188 278.785156 213.777344 C 300.292969 184.789063 314.703125 147.78125 318.875 110.824219 C 319.320313 106.878906 319.375 104.542969 319.375 89.808594 C 319.375 74.890625 319.324219 72.839844 318.875 69.316406 "/>
</g>
<path style=" stroke:none;fill-rule:nonzero;fill:rgb(0.799561%,0.799561%,0.799561%);fill-opacity:1;" d="M 165.566406 364.636719 C 165.070313 364.636719 164.867188 364.585938 165.117188 364.519531 C 165.363281 364.453125 165.769531 364.453125 166.015625 364.519531 C 166.261719 364.585938 166.0625 364.636719 165.566406 364.636719 Z M 158.105469 364.636719 C 157.613281 364.636719 157.410156 364.585938 157.65625 364.519531 C 157.902344 364.453125 158.308594 364.453125 158.558594 364.519531 C 158.804688 364.585938 158.601563 364.636719 158.105469 364.636719 Z M 185.628906 337.15625 C 185.449219 336.65625 185.175781 336.632813 179.296875 336.570313 C 175.917969 336.535156 173.003906 336.605469 172.816406 336.726563 C 172.632813 336.847656 170.808594 341.722656 168.769531 347.5625 C 166.730469 353.402344 164.882813 358.53125 164.664063 358.957031 C 164.019531 360.226563 161.996094 360.398438 162.359375 359.152344 C 162.453125 358.828125 164.144531 353.921875 166.117188 348.253906 C 168.089844 342.582031 169.667969 337.648438 169.628906 337.289063 L 169.550781 336.636719 L 163.222656 336.566406 C 158.351563 336.511719 156.832031 336.570313 156.628906 336.824219 C 156.238281 337.320313 149.464844 357.039063 149.128906 358.65625 C 148.582031 361.308594 149.679688 363.09375 152.601563 364.3125 C 154.09375 364.9375 154.261719 364.945313 161.894531 364.953125 C 170.925781 364.960938 171.683594 364.820313 175.0625 362.488281 C 176.628906 361.40625 177.121094 360.890625 177.839844 359.5625 C 179.128906 357.175781 185.859375 337.808594 185.628906 337.15625 "/>
<path style=" stroke:none;fill-rule:nonzero;fill:rgb(0.799561%,0.799561%,0.799561%);fill-opacity:1;" d="M 48.441406 349.214844 C 45.167969 358.683594 44.980469 359.152344 44.347656 359.605469 C 43.75 360.03125 42.476563 360.136719 42.261719 359.78125 C 41.984375 359.328125 47.742188 343.132813 48.453125 342.351563 C 49.035156 341.714844 50.414063 341.484375 50.714844 341.972656 C 50.796875 342.105469 49.773438 345.363281 48.441406 349.214844 Z M 45.191406 364.636719 C 44.699219 364.636719 44.496094 364.585938 44.742188 364.519531 C 44.988281 364.453125 45.394531 364.453125 45.644531 364.519531 C 45.890625 364.585938 45.6875 364.636719 45.191406 364.636719 Z M 37.863281 364.648438 C 37.4375 364.652344 37.234375 364.597656 37.40625 364.527344 C 37.582031 364.457031 37.929688 364.449219 38.179688 364.515625 C 38.429688 364.585938 38.285156 364.640625 37.863281 364.648438 Z M 62.800781 339.136719 C 60.761719 336.847656 56.660156 335.84375 50.207031 336.058594 C 45.445313 336.21875 42.339844 336.890625 39.386719 338.410156 C 35.539063 340.390625 34.730469 341.679688 31.574219 350.828125 C 29.183594 357.757813 28.796875 359.367188 29.207031 360.753906 C 29.65625 362.269531 30.679688 363.363281 32.449219 364.210938 L 34.003906 364.960938 L 41.71875 364.957031 L 49.4375 364.953125 L 51.507813 364.21875 C 53.796875 363.410156 56.132813 361.964844 57.191406 360.695313 C 58.226563 359.457031 59.59375 356.289063 61.605469 350.449219 C 64.367188 342.457031 64.515625 341.0625 62.800781 339.136719 "/>
<path style=" stroke:none;fill-rule:nonzero;fill:rgb(0.799561%,0.799561%,0.799561%);fill-opacity:1;" d="M 79.367188 358.695313 L 75.867188 358.5625 L 79.433594 348.382813 C 81.609375 342.171875 82.976563 337.894531 82.9375 337.417969 L 82.875 336.636719 L 76.660156 336.566406 C 71.679688 336.507813 70.375 336.566406 70.09375 336.851563 C 69.589844 337.363281 60.296875 364.132813 60.46875 364.582031 C 60.667969 365.113281 80.726563 365.148438 81.160156 364.617188 C 81.589844 364.09375 83.042969 359.75 82.949219 359.261719 C 82.878906 358.886719 82.367188 358.804688 79.367188 358.695313 "/>
<path style=" stroke:none;fill-rule:nonzero;fill:rgb(0.799561%,0.799561%,0.799561%);fill-opacity:1;" d="M 112.296875 349.65625 C 112.382813 349.492188 114.859375 346.734375 117.800781 343.527344 C 121.652344 339.328125 123.128906 337.546875 123.074219 337.164063 C 123 336.652344 122.804688 336.632813 117.46875 336.5625 C 114.425781 336.519531 111.691406 336.546875 111.386719 336.625 C 110.921875 336.738281 105.53125 342.738281 103.632813 345.253906 L 103.039063 346.03125 L 103.53125 344.988281 C 104.496094 342.9375 106.25 337.40625 106.082031 336.957031 C 105.925781 336.542969 105.347656 336.503906 99.632813 336.503906 C 94.71875 336.503906 93.292969 336.582031 93.070313 336.851563 C 92.640625 337.378906 83.515625 363.636719 83.515625 364.347656 L 83.515625 364.96875 L 96.695313 364.828125 L 98.207031 360.546875 C 99.039063 358.191406 99.71875 356.085938 99.71875 355.871094 C 99.71875 355.652344 99.789063 355.546875 99.878906 355.632813 C 99.964844 355.71875 100.179688 357.722656 100.355469 360.082031 C 100.535156 362.441406 100.761719 364.503906 100.859375 364.664063 C 100.984375 364.871094 103.015625 364.960938 107.589844 364.960938 C 113.578125 364.960938 114.15625 364.921875 114.3125 364.503906 C 114.40625 364.253906 113.957031 360.878906 113.3125 357 C 112.671875 353.121094 112.210938 349.816406 112.296875 349.65625 "/>
<path style=" stroke:none;fill-rule:nonzero;fill:rgb(0.799561%,0.799561%,0.799561%);fill-opacity:1;" d="M 133.542969 364.632813 C 132.976563 364.628906 132.777344 364.574219 133.097656 364.515625 C 133.414063 364.449219 133.878906 364.453125 134.125 364.519531 C 134.371094 364.585938 134.109375 364.636719 133.542969 364.632813 Z M 125.699219 364.636719 C 125.203125 364.636719 125 364.585938 125.25 364.519531 C 125.496094 364.453125 125.902344 364.453125 126.148438 364.519531 C 126.394531 364.585938 126.195313 364.636719 125.699219 364.636719 Z M 138.429688 346.957031 C 135.113281 345.5625 134.699219 345.277344 134.703125 344.394531 C 134.703125 342.777344 136.046875 341.550781 137.566406 341.769531 C 138.238281 341.867188 138.257813 342.0625 137.773438 343.839844 C 137.191406 345.96875 137.007813 345.902344 143.503906 345.898438 C 146.652344 345.894531 149.375 345.804688 149.546875 345.691406 C 150.046875 345.371094 150.667969 343.308594 150.824219 341.445313 C 150.964844 339.796875 150.941406 339.695313 150.152344 338.785156 C 148.398438 336.761719 144.109375 335.855469 137.273438 336.070313 C 128.878906 336.332031 124.691406 338.109375 122.636719 342.28125 C 121.558594 344.472656 121.164063 346.414063 121.542969 347.695313 C 122.144531 349.738281 123.230469 350.617188 127.550781 352.570313 C 131.828125 354.507813 133.4375 355.378906 133.71875 355.90625 C 134.117188 356.667969 133.492188 358.582031 132.589844 359.355469 C 131.824219 360.003906 130.007813 360.269531 129.703125 359.769531 C 129.628906 359.644531 129.855469 358.675781 130.214844 357.617188 C 130.570313 356.558594 130.828125 355.398438 130.785156 355.039063 L 130.714844 354.386719 L 125.183594 354.3125 C 122.144531 354.273438 119.398438 354.304688 119.085938 354.378906 C 118.636719 354.492188 118.382813 354.960938 117.863281 356.621094 C 116.855469 359.867188 117.035156 361.921875 118.449219 363.21875 C 118.734375 363.480469 119.640625 363.976563 120.46875 364.320313 C 121.9375 364.933594 122.125 364.945313 129.867188 364.953125 C 137.484375 364.960938 137.835938 364.9375 139.695313 364.335938 C 143.238281 363.195313 144.84375 361.839844 146.121094 358.910156 C 147.539063 355.652344 147.589844 352.8125 146.25 351.265625 C 145.40625 350.289063 142.355469 348.609375 138.429688 346.957031 "/>
</g>
</svg>
